<svg id="Layer_1" data-name="Layer 1" xmlns="http://www.w3.org/2000/svg" xmlns:xlink="http://www.w3.org/1999/xlink" viewBox="0 0 127.82 114.82"><defs><style>.cls-1{fill:url(#radial-gradient);}.cls-2{fill:#63ffe5;}</style><radialGradient id="radial-gradient" cx="89.37" cy="57.41" r="132.46" gradientTransform="translate(19.22 2.74) scale(0.5 0.95)" gradientUnits="userSpaceOnUse"><stop offset="0" stop-color="#38758b"/><stop offset="0.28" stop-color="#307889"/><stop offset="0.73" stop-color="#198183"/><stop offset="1" stop-color="#08877f"/></radialGradient></defs><rect class="cls-1" x="3.5" y="3.5" width="120.82" height="107.82" rx="30.1"/><path class="cls-2" d="M94.21,7a26.64,26.64,0,0,1,26.61,26.6V81.22a26.64,26.64,0,0,1-26.61,26.6H33.6A26.63,26.63,0,0,1,7,81.22V33.6A26.63,26.63,0,0,1,33.6,7H94.21m0-7H33.6A33.6,33.6,0,0,0,0,33.6V81.22a33.6,33.6,0,0,0,33.6,33.6H94.21a33.6,33.6,0,0,0,33.61-33.6V33.6A33.6,33.6,0,0,0,94.21,0Z"/><path class="cls-2" d="M70,82.78H63.27V39.15H54l3-6.77H70Z"/></svg>