<svg id="Layer_1" data-name="Layer 1" xmlns="http://www.w3.org/2000/svg" xmlns:xlink="http://www.w3.org/1999/xlink" viewBox="0 0 127.82 114.82"><defs><style>.cls-1{fill:url(#radial-gradient);}.cls-2{fill:#63ffe5;}</style><radialGradient id="radial-gradient" cx="256.73" cy="57.41" r="132.46" gradientTransform="translate(-64.46 2.74) scale(0.5 0.95)" gradientUnits="userSpaceOnUse"><stop offset="0" stop-color="#38758b"/><stop offset="0.28" stop-color="#307889"/><stop offset="0.73" stop-color="#198183"/><stop offset="1" stop-color="#08877f"/></radialGradient></defs><rect class="cls-1" x="3.5" y="3.5" width="120.82" height="107.82" rx="30.1"/><path class="cls-2" d="M94.21,7a26.64,26.64,0,0,1,26.61,26.6V81.22a26.64,26.64,0,0,1-26.61,26.6H33.6A26.63,26.63,0,0,1,7,81.22V33.6A26.63,26.63,0,0,1,33.6,7H94.21m0-7H33.6A33.6,33.6,0,0,0,0,33.6V81.22a33.6,33.6,0,0,0,33.6,33.6H94.21a33.6,33.6,0,0,0,33.61-33.6V33.6A33.6,33.6,0,0,0,94.21,0Z"/><g id="_2" data-name="2"><path class="cls-2" d="M79.56,46.6a16.22,16.22,0,0,1-1.73,7.95,22.57,22.57,0,0,1-5.72,6.38c-2.66,2.16-4.54,3.67-5.62,4.53s-2.41,2-4,3.35A41.31,41.31,0,0,0,58.25,73a12.07,12.07,0,0,0-2.37,3.6H79.13v6.77H48.6V80.22a14.11,14.11,0,0,1,.33-3,17.75,17.75,0,0,1,1.44-3.85,30.84,30.84,0,0,1,3.56-5.48Q56.38,64.75,66.6,57q5.7-4.39,5.69-10.73A6.9,6.9,0,0,0,70.06,41a8.94,8.94,0,0,0-6.41-2.13q-6.69,0-10.44,7.78l-5.33-4.46q5.4-9.87,15.56-9.87,7.56,0,11.84,3.75T79.56,46.6Z"/></g></svg>