<svg id="Layer_1" data-name="Layer 1" xmlns="http://www.w3.org/2000/svg" xmlns:xlink="http://www.w3.org/1999/xlink" viewBox="0 0 127.82 114.82"><defs><style>.cls-1{fill:url(#radial-gradient);}.cls-2{fill:#63ffe5;}</style><radialGradient id="radial-gradient" cx="424.1" cy="57.41" r="132.46" gradientTransform="translate(-148.14 2.74) scale(0.5 0.95)" gradientUnits="userSpaceOnUse"><stop offset="0" stop-color="#38758b"/><stop offset="0.28" stop-color="#307889"/><stop offset="0.73" stop-color="#198183"/><stop offset="1" stop-color="#08877f"/></radialGradient></defs><rect class="cls-1" x="3.5" y="3.5" width="120.82" height="107.82" rx="30.1"/><path class="cls-2" d="M94.21,7a26.64,26.64,0,0,1,26.61,26.6V81.22a26.64,26.64,0,0,1-26.61,26.6H33.6A26.63,26.63,0,0,1,7,81.22V33.6A26.63,26.63,0,0,1,33.6,7H94.21m0-7H33.6A33.6,33.6,0,0,0,0,33.6V81.22a33.6,33.6,0,0,0,33.6,33.6H94.21a33.6,33.6,0,0,0,33.61-33.6V33.6A33.6,33.6,0,0,0,94.21,0Z"/><g id="_3" data-name="3"><path class="cls-2" d="M81.15,67.55q0,7.77-4.65,12.17T64.16,84.11q-6.7,0-10.91-2.52a11.29,11.29,0,0,1-5.37-7.34L53.21,69a10.18,10.18,0,0,0,10.73,8.78q9.86,0,9.86-10.22,0-9.15-11.16-9.15h-4V51.64a20.1,20.1,0,0,0,7.78-4.5,18.28,18.28,0,0,0,4.89-7.38h-21V33H78.05V34.5q0,12.09-9.29,17.79A15.78,15.78,0,0,1,78,57.61,15.43,15.43,0,0,1,81.15,67.55Z"/></g></svg>