<svg id="Layer_1" data-name="Layer 1" xmlns="http://www.w3.org/2000/svg" xmlns:xlink="http://www.w3.org/1999/xlink" viewBox="0 0 370.73 166.52"><defs><style>.cls-1{fill:url(#radial-gradient);}.cls-2{fill:#63ffe5;}</style><radialGradient id="radial-gradient" cx="185.36" cy="83.26" r="198.83" gradientTransform="translate(0 3.98) scale(1 0.95)" gradientUnits="userSpaceOnUse"><stop offset="0" stop-color="#38758b"/><stop offset="0.28" stop-color="#307889"/><stop offset="0.73" stop-color="#198183"/><stop offset="1" stop-color="#08877f"/></radialGradient></defs><rect class="cls-1" x="3.5" y="3.5" width="363.73" height="159.52" rx="30.1"/><path class="cls-2" d="M337.12,7a26.64,26.64,0,0,1,26.61,26.6v99.31a26.64,26.64,0,0,1-26.61,26.61H33.6A26.64,26.64,0,0,1,7,132.91V33.6A26.63,26.63,0,0,1,33.6,7H337.12m0-7H33.6A33.6,33.6,0,0,0,0,33.6v99.31a33.6,33.6,0,0,0,33.6,33.61H337.12a33.61,33.61,0,0,0,33.61-33.61V33.6A33.6,33.6,0,0,0,337.12,0Z"/><path class="cls-2" d="M114.1,96.66h.62l8.57-32.26Q126,54,131.64,50.09t17-3.86v73.09h-9.82v-62a9,9,0,0,0-4.12,3.23,23.84,23.84,0,0,0-2.66,6.27L119,111.59h-9.18L96.66,66.8a24.54,24.54,0,0,0-2.61-6.32A8.83,8.83,0,0,0,90,57.3v62H80.16V46.23q11.39,0,17,3.91t8.4,14.26Z"/><path class="cls-2" d="M173.09,119.32h-9.81V46.23h9.81Z"/><path class="cls-2" d="M197.52,119.32h-9.81V46.23H213.5q12.94,0,19.32,5.79t6.36,18.22v49.08h-9.81V68.89c0-4.74-1.45-8.16-4.33-10.29s-6.7-3.18-11.44-3.18H197.52Z"/><path class="cls-2" d="M248.58,55.42V46.23h45.94v9.19H276.46v63.9h-9.81V55.42Z"/></svg>