<svg id="Layer_1" data-name="Layer 1" xmlns="http://www.w3.org/2000/svg" xmlns:xlink="http://www.w3.org/1999/xlink" viewBox="0 0 127.82 114.82"><defs><style>.cls-1{fill:url(#radial-gradient);}.cls-2{fill:#fff;}.cls-3{fill:#63ffe5;stroke:#fff;stroke-linecap:round;stroke-miterlimit:10;stroke-width:8px;}</style><radialGradient id="radial-gradient" cx="576.95" cy="57.41" r="132.46" gradientTransform="translate(-224.57 2.74) scale(0.5 0.95)" gradientUnits="userSpaceOnUse"><stop offset="0" stop-color="#58ead7"/><stop offset="0.2" stop-color="#55e3d3"/><stop offset="0.5" stop-color="#4dcfc6"/><stop offset="0.85" stop-color="#3fafb2"/><stop offset="1" stop-color="#389fa8"/></radialGradient></defs><rect class="cls-1" x="3.5" y="3.5" width="120.82" height="107.82" rx="30.1"/><path class="cls-2" d="M94.21,7a26.64,26.64,0,0,1,26.61,26.6V81.22a26.64,26.64,0,0,1-26.61,26.6H33.6A26.63,26.63,0,0,1,7,81.22V33.6A26.63,26.63,0,0,1,33.6,7H94.21m0-7H33.6A33.6,33.6,0,0,0,0,33.6V81.22a33.6,33.6,0,0,0,33.6,33.6H94.21a33.6,33.6,0,0,0,33.61-33.6V33.6A33.6,33.6,0,0,0,94.21,0Z"/><polyline class="cls-3" points="65.94 30.9 65.94 57.41 65.94 83.92"/><line class="cls-3" x1="42.14" y1="57.41" x2="89.73" y2="57.41"/></svg>